<svg xmlns="http://www.w3.org/2000/svg" viewBox="0 0 64 64">
  <rect width="64" height="64" rx="14" fill="#e7f0ff"/>
  <circle cx="24" cy="23" r="11" fill="#f6c744"/>
  <path
    fill="#fff"
    d="M21 45h27c6.1 0 11-4.4 11-10 0-5.3-4.5-9.7-10.3-10A16.2 16.2 0 0 0 33 13c-8 0-14.7 5.3-16.1 12.4C10.8 26.2 6 30.2 6 35.3 6 40.7 12.7 45 21 45Z"/>
  <path
    fill="#aeb9c8"
    fill-opacity=".65"
    d="M21 45h27c6.1 0 11-4.4 11-10 0-1.2-.2-2.3-.6-3.4-1.4 4-5.6 6.9-10.4 6.9H21c-6.8 0-12.6-2.9-14.4-7A9.4 9.4 0 0 0 6 35.3C6 40.7 12.7 45 21 45Z"/>
  <path
    fill="#1f6feb"
    d="M36 49.5c0 3.1-2.4 5.5-5.3 5.5a5.3 5.3 0 0 1-5.3-5.5c0-3.6 5.3-9.5 5.3-9.5s5.3 5.9 5.3 9.5Z"/>
</svg>
